<svg xmlns="http://www.w3.org/2000/svg" viewBox="0 0 24 24" version="1.1"><g id="Navigation" stroke="none" stroke-width="1" fill="currentColor" fill-rule="evenodd"><g id="PV_M_Nav-PitVipers" transform="translate(-28.000000, -39.000000)" fill="currentColor" fill-rule="nonzero" stroke="#000000" stroke-width="0.25"><g id="Navigation-/-Mobile-/-Closed"><g id="Menu"><g transform="translate(25.000000, 37.000000)"><g id="Icon-/-Menu-/-Closed"><g id="Icon-/-Menu-/-Open"><path d="M4,5.44444444 L4,3 L6.44444444,3 L6.44444444,5.44444444 L4,5.44444444 Z M6.44444444,7.88888889 L6.44444444,5.44444444 L8.88888889,5.44444444 L8.88888889,7.88888889 L6.44444444,7.88888889 Z M8.88888889,10.3333333 L8.88888889,7.88888889 L11.3333333,7.88888889 L11.3333333,10.3333333 L8.88888889,10.3333333 Z M18.6666667,10.3333333 L18.6666667,7.88888889 L21.1111111,7.88888889 L21.1111111,10.3333333 L18.6666667,10.3333333 Z M21.1111111,7.88888889 L21.1111111,5.44444444 L23.5555556,5.44444444 L23.5555556,7.88888889 L21.1111111,7.88888889 Z M23.5555556,5.44444444 L23.5555556,3 L26,3 L26,5.44444444 L23.5555556,5.44444444 Z M11.3333333,12.7777778 L11.3333333,10.3333333 L13.7777778,10.3333333 L13.7777778,12.7777778 L11.3333333,12.7777778 Z M13.7777778,15.2222222 L13.7777778,12.7777778 L16.2222222,12.7777778 L16.2222222,15.2222222 L13.7777778,15.2222222 Z M16.2222222,17.6666667 L16.2222222,15.2222222 L18.6666667,15.2222222 L18.6666667,17.6666667 L16.2222222,17.6666667 Z M18.6666667,20.1111111 L18.6666667,17.6666667 L21.1111111,17.6666667 L21.1111111,20.1111111 L18.6666667,20.1111111 Z M21.1111111,22.5555556 L21.1111111,20.1111111 L23.5555556,20.1111111 L23.5555556,22.5555556 L21.1111111,22.5555556 Z M23.5555556,25 L23.5555556,22.5555556 L26,22.5555556 L26,25 L23.5555556,25 Z M16.2222222,12.7777778 L16.2222222,10.3333333 L18.6666667,10.3333333 L18.6666667,12.7777778 L16.2222222,12.7777778 Z M8.88888889,20.1111111 L8.88888889,17.6666667 L11.3333333,17.6666667 L11.3333333,20.1111111 L8.88888889,20.1111111 Z M11.3333333,17.6666667 L11.3333333,15.2222222 L13.7777778,15.2222222 L13.7777778,17.6666667 L11.3333333,17.6666667 Z M4,25 L4,22.5555556 L6.44444444,22.5555556 L6.44444444,25 L4,25 Z M6.44444444,22.5555556 L6.44444444,20.1111111 L8.88888889,20.1111111 L8.88888889,22.5555556 L6.44444444,22.5555556 Z"></path></g></g></g></g></g></g></g></svg>